<?xml version="1.0" encoding="UTF-8"?>
<svg width="1160px" height="131px" viewBox="0 0 1160 131" version="1.1" xmlns="http://www.w3.org/2000/svg" xmlns:xlink="http://www.w3.org/1999/xlink">
    <!-- Generator: Sketch 54.1 (76490) - https://sketchapp.com -->
    <title>logo-edutin</title>
    <desc>Created with Sketch.</desc>
    <g id="certificado" stroke="none" stroke-width="1" fill="none" fill-rule="evenodd">
        <g id="Artboard-center-6.1" transform="translate(-2036.000000, -476.000000)" fill="#0056BF" fill-rule="nonzero">
            <g id="certificado-edutin" transform="translate(760.000000, 201.000000)">
                <g id="texto" transform="translate(579.000000, 275.000000)">
                    <g id="edutin" transform="translate(576.000000, 0.000000)">
                        <g id="logo-edutin" transform="translate(121.000000, 0.000000)">
                            <path d="M68.64,106.078049 L4.16,106.078049 C1.88038291,106.035493 0.0426207661,104.200532 8.73967565e-13,101.92439 L8.73967565e-13,13.1 C0.0426207661,10.8238579 1.88038291,8.98889726 4.16,8.94634146 L68.48,8.94634146 C69.4612648,8.92884138 70.4075051,9.31034129 71.1014748,10.0032531 C71.7954444,10.6961648 72.1775268,11.6409628 72.16,12.6207317 L72.16,19.4902439 C72.1775268,20.4700129 71.7954444,21.4148108 71.1014748,22.1077225 C70.4075051,22.8006343 69.4612648,23.1821342 68.48,23.1646341 L15.36,23.1646341 L15.36,50.4829268 L59.2,50.4829268 C60.1812648,50.4654267 61.1275051,50.8469267 61.8214748,51.5398384 C62.5154444,52.2327502 62.8975268,53.1775481 62.88,54.1573171 L62.88,60.7232927 C62.8975268,61.7030616 62.5154444,62.6478595 61.8214748,63.3407713 C61.1275051,64.0336831 60.1812648,64.415183 59.2,64.3976829 L15.36,64.3976829 L15.36,92.0354878 L68.64,92.0354878 C69.6212648,92.0179877 70.5675051,92.3994876 71.2614748,93.0923994 C71.9554444,93.7853112 72.3375268,94.7301091 72.32,95.709878 L72.32,102.57939 C72.2990607,103.531393 71.8989779,104.435804 71.2083063,105.092441 C70.5176347,105.749078 69.5933376,106.103785 68.64,106.078049 L68.64,106.078049 Z" id="Path"></path>
                            <path d="M158.88,110.247683 L152,110.247683 C149.720383,110.205127 147.882621,108.370166 147.84,106.094024 L147.84,97.9464634 C141.44,104.336707 132.64,108.011098 121.76,108.011098 C103.04,108.011098 86.08,92.8342683 86.08,69.9891463 C86.08,47.4635366 103.04,31.9671951 121.76,31.9671951 C132.64,31.9671951 141.6,35.8013415 147.84,42.3513415 L147.84,5.75121951 C147.882621,3.47507745 149.720383,1.64011677 152,1.59756098 L158.88,1.59756098 C161.159617,1.64011677 162.997379,3.47507745 163.04,5.75121951 L163.04,106.078049 C163.052926,107.185035 162.619314,108.250677 161.836815,109.034989 C161.054315,109.819301 159.988718,110.25634 158.88,110.247683 L158.88,110.247683 Z M147.84,70.1489024 C148.011808,63.7384789 145.603195,57.5267473 141.1529,52.903094 C136.702605,48.2794408 130.581968,45.6296714 124.16,45.5464634 C111.04,45.5464634 100.8,55.1318293 100.8,70.1489024 C100.8,85.1659756 111.2,94.7513415 124.16,94.7513415 C136.32,94.895122 147.84,85.4695122 147.84,70.1329268 L147.84,70.1489024 Z" id="Shape"></path>
                            <path d="M846.72,108.650122 L839.84,108.650122 C837.560383,108.607566 835.722621,106.772605 835.68,104.496463 L835.68,96.3489024 C829.28,102.739146 820.48,106.413537 809.6,106.413537 C790.88,106.413537 773.92,91.2367073 773.92,68.3915854 C773.92,45.8659756 790.88,30.3696341 809.6,30.3696341 C820.48,30.3696341 829.44,34.2037805 835.68,40.7537805 L835.68,4.15365854 C835.722621,1.87751648 837.560383,0.0425557954 839.84,-1.15818466e-12 L846.72,-1.15818466e-12 C848.999617,0.0425557954 850.837379,1.87751648 850.88,4.15365854 L850.88,104.480488 C850.920494,105.59545 850.495772,106.677193 849.70717,107.467622 C848.918568,108.25805 847.836812,108.686274 846.72,108.650122 Z M835.84,68.5513415 C836.011808,62.1409179 833.603195,55.9291863 829.1529,51.305533 C824.702605,46.6818798 818.581968,44.0321104 812.16,43.9489024 C799.04,43.9489024 788.8,53.5342683 788.8,68.5513415 C788.8,83.5684146 799.2,93.1537805 812.16,93.1537805 C824.16,93.1378049 835.84,83.7121951 835.84,68.5353659 L835.84,68.5513415 Z" id="Shape"></path>
                            <path d="M247.68,106.078049 L241.92,106.078049 C239.640383,106.035493 237.802621,104.200532 237.76,101.92439 L237.76,97.2914634 C231.84,104.320732 223.52,108.154878 212.96,108.154878 C195.52,108.154878 184.16,95.6939024 184.16,77.4817073 L184.16,38.357439 C184.202621,36.081297 186.040383,34.2463363 188.32,34.2037805 L195.04,34.2037805 C197.319617,34.2463363 199.157379,36.081297 199.2,38.357439 L199.2,74.4623171 C199.2,86.1245122 206.08,94.2720732 216.48,94.2720732 C229.44,94.2720732 237.76,85.6452439 237.76,67.4330488 L237.76,38.357439 C237.802621,36.081297 239.640383,34.2463363 241.92,34.2037805 L248.64,34.2037805 C250.919617,34.2463363 252.757379,36.081297 252.8,38.357439 L252.8,101.620854 C252.96,104.160976 251.2,106.397561 247.68,106.078049 Z" id="Path"></path>
                            <path d="M322.56,99.3682927 C323.212437,101.311311 322.411114,103.444916 320.64,104.480488 C316.130512,106.946462 311.06119,108.211861 305.92,108.154878 C290.4,108.154878 280,99.5280488 280,81.6353659 L280,46.8085366 L268.64,46.8085366 C266.360383,46.7659808 264.522621,44.9310201 264.48,42.654878 L264.48,38.5012195 C264.522621,36.2250775 266.360383,34.3901168 268.64,34.347561 L280,34.347561 L280,16.1353659 C280.042621,13.8592238 281.880383,12.0242631 284.16,11.9817073 L290.88,11.9817073 C293.159617,12.0242631 294.997379,13.8592238 295.04,16.1353659 L295.04,34.347561 L315.52,34.347561 C317.799617,34.3901168 319.637379,36.2250775 319.68,38.5012195 L319.68,42.654878 C319.637379,44.9310201 317.799617,46.7659808 315.52,46.8085366 L295.04,46.8085366 L295.04,80.8365854 C295.04,89.7829268 299.84,94.2560976 307.04,94.2560976 C309.897152,94.1792514 312.716435,93.5837737 315.36,92.4987805 C316.417773,92.0414869 317.61746,92.0392611 318.676927,92.4926265 C319.736395,92.9459919 320.562151,93.8149412 320.96,94.895122 L322.56,99.3682927 Z" id="Path"></path>
                            <path d="M354.24,12.6207317 C353.944913,17.7430966 349.698665,21.7460092 344.56,21.7460092 C339.421335,21.7460092 335.175087,17.7430966 334.88,12.6207317 C334.88,7.2827649 339.213884,2.9554878 344.56,2.9554878 C349.906116,2.9554878 354.24,7.2827649 354.24,12.6207317 Z M337.12,101.92439 L337.12,38.357439 C337.162621,36.081297 339.000383,34.2463363 341.28,34.2037805 L348,34.2037805 C350.279617,34.2463363 352.117379,36.081297 352.16,38.357439 L352.16,101.940366 C352.117379,104.216508 350.279617,106.051469 348,106.094024 L341.28,106.094024 C340.171282,106.102682 339.105685,105.665643 338.323185,104.881331 C337.540686,104.097019 337.107074,103.031377 337.12,101.92439 L337.12,101.92439 Z" id="Shape"></path>
                            <path d="M445.12,62.6243902 L445.12,101.92439 C445.077379,104.200532 443.239617,106.035493 440.96,106.078049 L434.08,106.078049 C431.800383,106.035493 429.962621,104.200532 429.92,101.92439 L429.92,65.6597561 C429.92,53.997561 423.04,46.1695122 412.8,46.1695122 C400,46.1695122 391.36,54.7963415 391.36,73.0085366 L391.36,102.084146 C391.317379,104.360288 389.479617,106.195249 387.2,106.237805 L380.48,106.237805 C378.200383,106.195249 376.362621,104.360288 376.32,102.084146 L376.32,38.5012195 C376.362621,36.2250775 378.200383,34.3901168 380.48,34.347561 L387.2,34.347561 C389.479617,34.3901168 391.317379,36.2250775 391.36,38.5012195 L391.36,43.150122 C397.28,36.1208537 405.6,32.2867073 416.32,32.2867073 C433.44,32.2707317 445.12,44.7476829 445.12,62.6243902 Z" id="Path"></path>
                            <path d="M573.6,103.521951 L565.92,85.4695122 C565.418838,84.3224878 564.293163,83.5731815 563.04,83.552439 L519.84,83.552439 C518.586837,83.5731815 517.461162,84.3224878 516.96,85.4695122 L509.28,103.521951 C508.634079,105.069799 507.119396,106.078049 505.44,106.078049 L497.76,106.078049 C496.328967,106.093693 494.989581,105.376565 494.210778,104.177742 C493.431976,102.97892 493.322244,101.465394 493.92,100.167073 L532.96,11.3426829 C533.659685,9.83994557 535.14163,8.853488 536.8,8.78658537 L545.92,8.78658537 C547.599396,8.78658537 549.114079,9.79483479 549.76,11.3426829 L588.8,100.167073 C589.379471,101.46619 589.261447,102.969814 588.486352,104.162931 C587.711257,105.356047 586.384306,106.076698 584.96,106.078049 L577.44,106.078049 C575.747142,106.123547 574.209036,105.099706 573.6,103.521951 Z M539.36,32.4304878 L524.96,66.2987805 C524.674572,66.9392653 524.737632,67.6810975 525.127086,68.2643888 C525.516541,68.8476802 526.178101,69.1911201 526.88,69.1743902 L555.68,69.1743902 C556.372334,69.1665412 557.016117,68.8178153 557.40018,68.2425995 C557.784243,67.6673837 557.859026,66.9399029 557.6,66.2987805 L543.2,32.4304878 C542.846541,31.6920295 542.099707,31.2219298 541.28,31.2219298 C540.460293,31.2219298 539.713459,31.6920295 539.36,32.4304878 L539.36,32.4304878 Z" id="Shape"></path>
                            <path d="M658.56,80.0378049 L664.64,81.6353659 C665.824867,81.9528301 666.809993,82.7744405 667.333838,83.8820679 C667.857683,84.9896953 667.86725,86.271284 667.36,87.3865854 C662.08,100.167073 648.8,108.154878 633.76,108.154878 C613.12,108.154878 595.68,92.9780488 595.68,70.1329268 C595.68,47.6073171 613.12,32.1109756 633.76,32.1109756 C648.32,32.1109756 661.44,40.0987805 667.2,52.7195122 C667.743878,53.8309366 667.752531,55.1288993 667.223518,56.247454 C666.694505,57.3660088 665.685139,58.1839734 664.48,58.4707317 L658.08,60.2280488 C656.054569,60.8329918 653.901839,59.7929359 653.12,57.8317073 C649.6,49.6841463 642.24,45.85 633.76,45.85 C620.32,45.85 610.56,55.595122 610.56,69.8134146 C610.56,84.5109756 620.32,93.7768293 633.76,93.7768293 C642.4,93.9365854 649.76,90.2621951 653.76,81.954878 C654.807599,80.3845099 656.716728,79.6220225 658.56,80.0378049 L658.56,80.0378049 Z" id="Path"></path>
                            <path d="M752,108.154878 L745.28,108.154878 C743.000383,108.112322 741.162621,106.277362 741.12,104.00122 L741.12,97.7707317 C734.88,104.320732 725.92,108.154878 715.04,108.154878 C696.16,108.154878 679.36,92.9780488 679.36,70.1329268 C679.36,47.6073171 696.16,32.1109756 715.04,32.1109756 C725.92,32.1109756 734.88,35.945122 741.12,42.495122 L741.12,38.357439 C741.162621,36.081297 743.000383,34.2463363 745.28,34.2037805 L752,34.2037805 C754.279617,34.2463363 756.117379,36.081297 756.16,38.357439 L756.16,104.017195 C756.216016,105.133602 755.795186,106.221348 755.002047,107.010232 C754.208907,107.799116 753.117887,108.21511 752,108.154878 L752,108.154878 Z M741.12,70.1329268 C741.291808,63.7225032 738.883195,57.5107717 734.4329,52.8871184 C729.982605,48.2634652 723.861968,45.6136958 717.44,45.5304878 C704.32,45.5304878 693.92,55.1158537 693.92,70.1329268 C693.92,85.15 704.32,94.7353659 717.44,94.7353659 C729.28,94.895122 741.12,85.4695122 741.12,70.1329268 Z" id="Shape"></path>
                            <path d="M939.84,73.8073171 L883.84,73.8073171 C883.231776,73.8108443 882.654602,74.076022 882.256251,74.5349573 C881.8579,74.9938925 881.677049,75.6020259 881.76,76.2036585 C884.16,88.0256098 893.28,95.054878 903.2,95.054878 C910.4,95.054878 917.92,93.1378049 923.04,85.15 C923.994765,83.657517 925.803114,82.9481771 927.52,83.3926829 L932.8,84.5109756 C934.110694,84.8074413 935.201881,85.7089629 935.738885,86.9390366 C936.27589,88.1691102 936.194619,89.580924 935.52,90.7414634 C928.96,102.403659 917.28,108.314634 903.2,108.314634 C883.68,108.314634 866.4,93.297561 866.4,70.452439 C866.4,47.6073171 883.36,32.2707317 903.68,32.2707317 C923.04,32.2707317 938.88,47.1280488 939.68,68.695122 L939.84,73.8073171 L939.84,73.8073171 Z M884.64,63.1036585 L921.6,63.1036585 C922.263701,63.083369 922.883017,62.7659213 923.286371,62.2392622 C923.689726,61.7126031 923.834285,61.0326595 923.68,60.3878049 C921.358088,51.4135492 913.118574,45.2433335 903.84,45.5304878 C894.309739,45.3588239 885.765561,51.3694089 882.72,60.3878049 C882.495488,61.0107659 882.589513,61.7039186 882.971899,62.2448059 C883.354285,62.7856931 883.976928,63.1062724 884.64,63.1036585 L884.64,63.1036585 Z" id="Shape"></path>
                            <path d="M1072.8,60.3878049 L1072.8,104.00122 C1072.75738,106.277362 1070.91962,108.112322 1068.64,108.154878 L1062.08,108.154878 C1059.80038,108.112322 1057.96262,106.277362 1057.92,104.00122 L1057.92,63.4231707 C1057.92,52.8792683 1050.88,46.1695122 1041.76,46.1695122 C1030.08,46.1695122 1022.24,54.4768293 1022.24,70.452439 L1022.24,104.00122 C1022.19738,106.277362 1020.35962,108.112322 1018.08,108.154878 L1011.36,108.154878 C1009.08038,108.112322 1007.24262,106.277362 1007.2,104.00122 L1007.2,63.4231707 C1007.2,52.8792683 1000.16,46.1695122 991.04,46.1695122 C979.36,46.1695122 971.84,54.4768293 971.84,70.452439 L971.84,104.00122 C971.797379,106.277362 969.959617,108.112322 967.68,108.154878 L960.96,108.154878 C958.680383,108.112322 956.842621,106.277362 956.8,104.00122 L956.8,38.357439 C956.842621,36.081297 958.680383,34.2463363 960.96,34.2037805 L967.68,34.2037805 C969.959617,34.2463363 971.797379,36.081297 971.84,38.357439 L971.84,42.3513415 C977.12,35.9610976 984.64,32.2867073 995.04,32.2867073 C1005.44,32.2867073 1014.4,37.0793902 1019.04,45.3867073 C1024.8,37.2391463 1034.08,32.2867073 1045.92,32.2867073 C1060.48,32.2707317 1072.8,43.4536585 1072.8,60.3878049 Z" id="Path"></path>
                            <path d="M1115.68,130.840244 L1108,130.840244 C1106.56897,130.855888 1105.22958,130.13876 1104.45078,128.939937 C1103.67198,127.741115 1103.56224,126.227589 1104.16,124.929268 L1113.28,104.320732 L1084.8,39.955 C1084.22053,38.6558828 1084.33855,37.1522592 1085.11365,35.9591425 C1085.88874,34.7660257 1087.21569,34.0453752 1088.64,34.0440244 L1096.32,34.0440244 C1097.9994,34.0440244 1099.51408,35.0522738 1100.16,36.600122 L1121.6,85.9647561 L1143.68,36.600122 C1144.37969,35.0973846 1145.86163,34.110927 1147.52,34.0440244 L1155.2,34.0440244 C1156.63103,34.0283803 1157.97042,34.745508 1158.74922,35.9443308 C1159.52802,37.1431537 1159.63776,38.656679 1159.04,39.955 L1119.68,128.300122 C1118.88763,129.791016 1117.36827,130.755857 1115.68,130.840244 L1115.68,130.840244 Z" id="Path"></path>
                        </g>
                    </g>
                </g>
            </g>
        </g>
    </g>
</svg>