<?xml version="1.0" encoding="UTF-8"?>
<svg width="486px" height="486px" viewBox="0 0 486 486" version="1.1" xmlns="http://www.w3.org/2000/svg" xmlns:xlink="http://www.w3.org/1999/xlink">
    <!-- Generator: Sketch 54.1 (76490) - https://sketchapp.com -->
    <title>sello-edutin</title>
    <desc>Created with Sketch.</desc>
    <defs>
        <path d="M56.4705882,124.190426 L71.5294118,124.190426 C84.0045496,124.190426 94.1176471,114.378317 94.1176471,102.274468 L94.1176471,7.30531915 C94.1176471,3.27070279 97.4886795,1.27724944e-13 101.647059,1.1264996e-13 L120.470588,8.8351312e-15 C124.628968,8.0939842e-15 128,3.27070279 128,7.30531915 L128,118.138501 C128,122.013483 126.41345,125.729756 123.589373,128.469783 L100.733588,150.645326 C96.497472,154.755366 90.7520663,157.064362 84.7612936,157.064362 L43.2387064,157.064362 C37.2479339,157.064362 31.5025278,154.755366 27.266412,150.645326 L4.41062731,128.469783 C1.58655006,125.729756 2.49660203e-13,122.013483 2.56265597e-13,118.138501 L2.22044605e-14,7.30531915 C1.43084405e-14,3.27070279 3.37103247,4.57739629e-15 7.52941176,-3.33066907e-15 L26.3529412,1.14272067e-13 C30.5113205,1.24281298e-13 33.8823529,3.27070279 33.8823529,7.30531915 L33.8823529,102.274468 C33.8823529,114.378317 43.9954504,124.190426 56.4705882,124.190426 Z M7.52941176,186.285638 L120.470588,186.285638 C124.628968,186.285638 128,189.556341 128,193.590957 L128,211.854255 C128,215.888872 124.628968,219.159574 120.470588,219.159574 L7.52941176,219.159574 C3.37103247,219.159574 2.98191426e-14,215.888872 2.93098879e-14,211.854255 L2.93098879e-14,193.590957 C2.88006335e-14,189.556341 3.37103247,186.285638 7.52941176,186.285638 Z" id="path-1"></path>
    </defs>
    <g id="certificado" stroke="none" stroke-width="1" fill="none" fill-rule="evenodd">
        <g id="Artboard-center-6.1" transform="translate(-2337.000000, -1882.000000)">
            <g id="certificado-edutin" transform="translate(760.000000, 201.000000)">
                <g id="sello" transform="translate(799.000000, 1680.000000)">
                    <g id="sello-edutin" transform="translate(777.000000, 0.000000)">
                        <path d="M243.69,13.75 C116.69,13.75 13.69,116.75 13.69,243.75 C13.69,370.75 116.69,473.75 243.69,473.75 C370.69,473.75 473.69,370.75 473.69,243.75 C473.69,116.75 370.74,13.75 243.69,13.75 Z M243.69,412.35 C175.50798,412.354045 114.037539,371.284765 87.9435409,308.293566 C61.8495429,245.302366 76.2710411,172.794979 124.48301,124.58301 C172.694979,76.3710411 245.202366,61.9495429 308.193566,88.0435409 C371.184765,114.137539 412.254045,175.60798 412.25,243.79 C412.25,336.883117 336.783117,412.35 243.69,412.35 Z" id="Shape" fill="#FFFFFF" fill-rule="nonzero"></path>
                        <path d="M243.69,475.48 C133.49646,475.395357 38.5991187,397.73305 16.7215887,289.733064 C-5.15594129,181.733077 52.0364075,73.2620003 153.51,30.3 C271.422793,-19.5077969 407.387196,35.7022096 457.194996,153.615002 C507.002795,271.527794 451.792791,407.492198 333.88,457.3 C305.345394,469.364278 274.670089,475.547636 243.69,475.48 L243.69,475.48 Z M243.69,15.4 C117.76,15.4 15.3,117.85 15.3,243.79 C15.3,369.73 117.76,472.18 243.69,472.18 C369.62,472.18 472.08,369.72 472.08,243.79 C472.08,117.86 369.62,15.4 243.69,15.4 Z" id="Shape" fill="#0056BF" fill-rule="nonzero"></path>
                        <path d="M243.69,412.9 C163.012031,412.898882 93.5697962,355.90756 77.8313218,276.779593 C62.0928474,197.651626 104.441508,118.425207 178.978598,87.5519665 C253.515688,56.6787262 339.481634,82.7572741 384.303187,149.839039 C429.12474,216.920804 420.318499,306.32262 363.27,363.37 C331.624913,395.18825 288.565353,413.023506 243.69,412.9 Z M243.69,75.77 C151.05,75.77 75.69,151.15 75.69,243.77 C75.69,336.39 151.06,411.77 243.69,411.77 C336.32,411.77 411.69,336.4 411.69,243.77 C411.69,151.14 336.33,75.77 243.69,75.77 Z" id="Shape" fill="#0056BF" fill-rule="nonzero"></path>
                        <path d="M243.69,406.56 C166.037239,406.560735 99.1974598,351.708374 84.0466622,275.547986 C68.8958646,199.387599 109.653684,123.130548 181.394595,93.411985 C253.135505,63.6934219 335.87901,88.7902373 379.023153,153.354424 C422.167296,217.91861 413.696041,303.968453 358.79,358.88 C328.334317,389.5126 286.885946,406.682525 243.69,406.56 L243.69,406.56 Z M243.69,82.12 C154.55,82.12 82,154.64 82,243.79 C82,332.94 154.53,405.46 243.67,405.46 C332.81,405.46 405.34,332.93 405.34,243.79 C405.34,154.65 332.83,82.12 243.69,82.12 Z" id="Shape" fill="#0056BF" fill-rule="nonzero"></path>
                        <path d="M239.73,486.58 L239.11,486.58 C236.978181,486.563431 235.263431,484.821819 235.28,482.69 C235.296569,480.558181 237.038181,478.843431 239.17,478.86 L239.79,478.86 C241.921819,478.876569 243.636569,480.618181 243.62,482.75 C243.603431,484.881819 241.861819,486.596569 239.73,486.58 L239.73,486.58 Z M255.66,486.31 C253.533704,486.359706 251.769706,484.676296 251.72,482.55 C251.670294,480.423704 253.353704,478.659706 255.48,478.61 L256.01,478.61 C257.426406,478.465403 258.807403,479.112252 259.603047,480.292957 C260.398691,481.473661 260.479777,482.996485 259.814013,484.255005 C259.14825,485.513525 257.843752,486.303367 256.42,486.31 L255.86,486.31 L255.66,486.31 Z M223.26,485.75 L222.93,485.75 L222.38,485.75 C220.239897,485.578792 218.643792,483.705103 218.815,481.565 C218.986208,479.424897 220.859897,477.828792 223,478 L223.54,478.05 C225.573391,478.254759 227.094789,480.008942 227.009931,482.050854 C226.925072,484.092766 225.263369,485.714664 223.22,485.75 L223.26,485.75 Z M272.1,484.94 C270.0654,484.929509 268.388281,483.341534 268.26679,481.310537 C268.1453,479.27954 269.621159,477.50296 271.64,477.25 L272.18,477.19 C273.546541,477.023872 274.897905,477.599403 275.725047,478.699798 C276.552189,479.800193 276.729446,481.258275 276.190047,482.524798 C275.650648,483.791322 274.476541,484.673872 273.11,484.84 L272.56,484.91 C272.407479,484.929955 272.253821,484.939976 272.1,484.94 L272.1,484.94 Z M206.89,483.79 C206.690282,483.805021 206.489718,483.805021 206.29,483.79 L205.74,483.7 C203.707463,483.296606 202.356068,481.360327 202.678423,479.313374 C203.000778,477.26642 204.881859,475.839193 206.94,476.08 L207.47,476.16 C209.448404,476.48095 210.852026,478.262685 210.700896,480.261248 C210.549766,482.25981 208.894171,483.810209 206.89,483.83 L206.89,483.79 Z M288.39,482.43 C286.390894,482.442121 284.715119,480.922153 284.532715,478.931348 C284.350312,476.940544 285.721975,475.141359 287.69,474.79 L288.21,474.69 C289.56225,474.430982 290.949965,474.913057 291.850406,475.954631 C292.750847,476.996206 293.027216,478.43904 292.575406,479.739632 C292.123597,481.040224 291.01225,482.000983 289.66,482.26 L289.11,482.37 C288.872068,482.409839 288.631245,482.429908 288.39,482.43 L288.39,482.43 Z M190.69,480.71 C190.40036,480.711288 190.111617,480.677713 189.83,480.61 L189.29,480.49 C187.407427,479.86034 186.309369,477.905469 186.751204,475.970181 C187.193038,474.034894 189.03069,472.750258 191,473 L191.52,473.12 C193.425188,473.561999 194.698716,475.359074 194.484416,477.303085 C194.270116,479.247096 192.635718,480.723613 190.68,480.74 L190.69,480.71 Z M304.48,478.81 C302.540531,478.813363 300.899719,477.377067 300.646378,475.454212 C300.393038,473.531358 301.605844,471.71909 303.48,471.22 L304.01,471.08 C305.342601,470.722734 306.764574,471.103541 307.740275,472.078974 C308.715976,473.054408 309.097174,474.476276 308.740275,475.808975 C308.383376,477.141673 307.342601,478.182735 306.01,478.54 L305.48,478.68 C305.153097,478.763338 304.817345,478.806986 304.48,478.81 L304.48,478.81 Z M174.74,476.51 C174.360071,476.512295 173.982136,476.45493 173.62,476.34 L173.09,476.18 C171.052069,475.564203 169.899203,473.412931 170.515,471.375 C171.130797,469.337069 173.282069,468.184203 175.32,468.8 L175.85,468.96 C177.672422,469.519409 178.813539,471.325456 178.536248,473.211528 C178.258958,475.0976 176.646314,476.49879 174.74,476.51 L174.74,476.51 Z M320.28,474.07 C318.398694,474.057532 316.800411,472.69058 316.496332,470.83397 C316.192254,468.977359 317.270964,467.171964 319.05,466.56 L319.56,466.39 C321.54378,465.806475 323.635027,466.889886 324.302586,468.846988 C324.970146,470.80409 323.976866,472.93962 322.05,473.69 L321.52,473.87 C321.120489,474.004449 320.701523,474.072024 320.28,474.07 L320.28,474.07 Z M159.09,471.2 C158.625274,471.199649 158.164471,471.114942 157.73,470.95 L157.21,470.75 C155.219013,469.996131 154.216131,467.770987 154.97,465.78 C155.723869,463.789013 157.949013,462.786131 159.94,463.54 L160.45,463.74 C162.201875,464.389243 163.234767,466.202544 162.899687,468.04056 C162.564606,469.878575 160.958279,471.210731 159.09,471.2 L159.09,471.2 Z M335.69,468.26 C333.853754,468.254323 332.275687,466.955847 331.916501,465.155064 C331.557315,463.354282 332.51645,461.549734 334.21,460.84 L334.7,460.63 C335.978491,460.048057 337.472194,460.20659 338.600052,461.043928 C339.727909,461.881266 340.311851,463.265207 340.12472,464.657392 C339.93759,466.049577 339.008932,467.230203 337.7,467.74 L337.18,467.96 C336.708282,468.158275 336.201694,468.260273 335.69,468.26 Z M143.86,464.82 C143.304297,464.821514 142.75492,464.702085 142.25,464.47 L141.74,464.23 C139.898754,463.283956 139.131577,461.053903 140.001098,459.175308 C140.870619,457.296714 143.067235,456.438473 144.98,457.23 L145.47,457.46 C147.108803,458.222115 147.999386,460.019315 147.613162,461.78491 C147.226938,463.550506 145.667326,464.811725 143.86,464.82 L143.86,464.82 Z M350.66,461.39 C348.871084,461.389438 347.31696,460.15979 346.904972,458.41896 C346.492983,456.678131 347.331098,454.88233 348.93,454.08 L349.41,453.84 C351.3062,452.920828 353.589161,453.692259 354.539183,455.573192 C355.489204,457.454125 354.755165,459.749383 352.89,460.73 L352.39,460.98 C351.85322,461.24977 351.260757,461.39018 350.66,461.39 L350.66,461.39 Z M129.11,457.39 C128.462283,457.392017 127.825029,457.226675 127.26,456.91 L126.77,456.65 C125.013675,455.573563 124.412092,453.307675 125.403179,451.501811 C126.394267,449.695948 128.628744,448.986537 130.48,449.89 L130.96,450.15 C132.499832,450.999244 133.271047,452.781896 132.835696,454.485647 C132.400345,456.189399 130.868482,457.383557 129.11,457.39 L129.11,457.39 Z M365.11,453.49 C363.365575,453.504078 361.82852,452.346406 361.360413,450.665902 C360.892306,448.985398 361.609508,447.199798 363.11,446.31 L363.58,446.04 C365.400409,445.065031 367.665724,445.695512 368.720695,447.470756 C369.775666,449.245999 369.246564,451.537114 367.52,452.67 L367.04,452.95 C366.463018,453.298658 365.804044,453.488414 365.13,453.5 L365.11,453.49 Z M114.91,449 C114.175795,448.999278 113.457269,448.787538 112.84,448.39 L112.36,448.08 C110.68395,446.881901 110.244241,444.578714 111.36103,442.847424 C112.477819,441.116133 114.75741,440.567063 116.54,441.6 L116.99,441.89 C118.432669,442.814448 119.093251,444.579282 118.612154,446.223802 C118.131057,447.868321 116.623446,448.99886 114.91,449 L114.91,449 Z M379,444.63 C377.32523,444.619781 375.84919,443.528027 375.349118,441.929626 C374.849047,440.331224 375.439677,438.592898 376.81,437.63 L377.25,437.32 C378.380062,436.456503 379.893406,436.284366 381.18853,436.872009 C382.483653,437.459651 383.350721,438.711863 383.445104,440.130933 C383.539486,441.550003 382.845892,442.906015 381.64,443.66 L381.18,443.98 C380.535663,444.411875 379.775638,444.638488 379,444.63 Z M101.31,439.63 C100.484837,439.629292 99.6818496,439.362798 99.02,438.87 L98.57,438.53 C97.3852236,437.736608 96.7343331,436.354685 96.8771987,434.935969 C97.0200642,433.517253 97.9334134,432.29285 99.2525883,431.751607 C100.571763,431.210364 102.081873,431.440449 103.18,432.35 L103.62,432.68 C104.995005,433.662563 105.570962,435.425334 105.041357,437.030198 C104.511752,438.635061 102.999745,439.708804 101.31,439.68 L101.31,439.63 Z M392.25,434.85 C390.607879,434.852556 389.143905,433.815891 388.601028,432.266101 C388.058151,430.71631 388.555228,428.992707 389.84,427.97 L390.27,427.64 C391.332975,426.694973 392.830381,426.412985 394.164284,426.906637 C395.498188,427.40029 396.45126,428.589153 396.642927,429.998499 C396.834593,431.407844 396.233626,432.808052 395.08,433.64 L394.64,433.99 C393.964965,434.523768 393.13056,434.815985 392.27,434.82 L392.25,434.85 Z M88.44,429.31 C87.5185507,429.312875 86.6271163,428.982583 85.93,428.38 L85.5,428 C84.1082429,426.569514 84.0364754,424.313944 85.3344792,422.797876 C86.632483,421.281808 88.8721821,421.005233 90.5,422.16 L90.9,422.5 C92.1242029,423.549916 92.5666261,425.250266 92.009396,426.763702 C91.4521659,428.277139 90.0127517,429.284618 88.4,429.29 L88.44,429.31 Z M404.81,424.12 C403.21697,424.124793 401.785515,423.147984 401.209194,421.66285 C400.632874,420.177716 401.030731,418.491025 402.21,417.42 L402.61,417.05 C403.616461,416.059073 405.083773,415.696971 406.435689,416.105899 C407.787606,416.514827 408.808228,417.62948 409.096736,419.012109 C409.385243,420.394738 408.895562,421.82454 407.82,422.74 L407.41,423.11 C406.701622,423.762353 405.772993,424.12309 404.81,424.12 Z M76.28,418.12 C75.2697563,418.125801 74.2985675,417.730132 73.58,417.02 L73.18,416.63 C72.1382186,415.675118 71.701531,414.22727 72.0415994,412.855606 C72.3816677,411.483942 73.4441212,410.407766 74.8113086,410.050125 C76.178496,409.692484 77.6318285,410.110557 78.6,411.14 L78.98,411.52 C80.0981072,412.615514 80.4416133,414.278938 79.8489212,415.72774 C79.2562291,417.176543 77.8453462,418.122263 76.28,418.12 L76.28,418.12 Z M416.6,412.55 C415.050738,412.556422 413.648558,411.63358 413.041695,410.208107 C412.434832,408.782634 412.74153,407.132276 413.82,406.02 L414.18,405.64 C415.118275,404.596137 416.549231,404.14385 417.917001,404.458833 C419.284771,404.773816 420.373772,405.806422 420.760972,407.155527 C421.148172,408.504633 420.772543,409.957595 419.78,410.95 L419.39,411.36 C418.668203,412.135505 417.659388,412.580251 416.6,412.59 L416.6,412.55 Z M64.91,406.21 C63.7996035,406.218586 62.7392943,405.748552 62,404.92 L61.63,404.5 C60.6568899,403.476391 60.3205148,402.003048 60.7529663,400.658539 C61.1854179,399.31403 62.3176413,398.313051 63.7050218,398.048677 C65.0924022,397.784303 66.5133996,398.29875 67.41,399.39 L67.77,399.8 C68.7709367,400.937441 69.0138629,402.555282 68.3911181,403.936526 C67.7683733,405.31777 66.3951357,406.206951 64.88,406.21 L64.91,406.21 Z M427.57,400.27 C426.066412,400.283191 424.692012,399.422042 424.048045,398.063272 C423.404078,396.704502 423.607765,395.095445 424.57,393.94 L424.92,393.53 C426.27862,391.892476 428.707476,391.66638 430.345,393.025 C431.982524,394.38362 432.20862,396.812476 430.85,398.45 L430.5,398.88 C429.773082,399.748848 428.702752,400.256615 427.57,400.27 L427.57,400.27 Z M54.4,393.51 C53.2014862,393.516328 52.0691154,392.961244 51.34,392.01 L51,391.57 C49.7794875,389.877618 50.1248276,387.521665 51.7797038,386.250763 C53.4345801,384.979862 55.799861,385.254129 57.12,386.87 L57.45,387.3 C58.3517548,388.462286 58.5123625,390.036836 57.8638488,391.357253 C57.215335,392.677669 55.8710744,393.513114 54.4,393.51 L54.4,393.51 Z M437.67,387.22 C436.222349,387.221176 434.896401,386.41018 434.238042,385.120893 C433.579683,383.831607 433.700209,382.281986 434.55,381.11 L434.87,380.67 C435.673848,379.551759 437.013208,378.947309 438.383557,379.08434 C439.753906,379.221372 440.947056,380.079067 441.513557,381.33434 C442.080059,382.589614 441.933848,384.051759 441.13,385.17 L440.8,385.62 C440.07748,386.628907 438.910928,387.225228 437.67,387.22 L437.67,387.22 Z M44.78,380.12 C43.4888852,380.122772 42.2828016,379.476522 41.57,378.4 L41.26,377.94 C40.1912461,376.168959 40.7085554,373.870242 42.4329713,372.727783 C44.1573872,371.585324 46.4758668,372.005275 47.69,373.68 L47.99,374.13 C49.1706824,375.903073 48.6918117,378.297426 46.92,379.48 C46.2843211,379.897414 45.5404747,380.119872 44.78,380.12 L44.78,380.12 Z M446.85,373.51 C445.452467,373.505265 444.166646,372.745497 443.488292,371.523631 C442.809938,370.301764 442.845016,368.808663 443.58,367.62 L443.87,367.16 C445.037379,365.501669 447.291022,365.03325 449.022531,366.089049 C450.754041,367.144847 451.369647,369.362808 450.43,371.16 L450.14,371.64 C449.443665,372.793583 448.197432,373.501928 446.85,373.51 L446.85,373.51 Z M36.11,366.11 C34.7236972,366.110537 33.4441494,365.365726 32.76,364.16 L32.49,363.68 C31.8094089,362.48316 31.8190233,361.014144 32.5152214,359.826315 C33.2114196,358.638486 34.4884324,357.912304 35.8652216,357.921315 C37.2420107,357.930326 38.5094091,358.67316 39.19,359.87 L39.46,360.34 C40.1399589,361.534136 40.1338051,362.999722 39.4438422,364.188106 C38.7538793,365.37649 37.4841553,366.108461 36.11,366.11 L36.11,366.11 Z M455.11,359.2 C453.75827,359.198384 452.505869,358.489801 451.808305,357.331966 C451.110741,356.174132 451.069658,354.735761 451.7,353.54 L451.96,353.06 C452.94859,351.176709 455.276709,350.45141 457.16,351.44 C459.043291,352.42859 459.76859,354.756709 458.78,356.64 L458.52,357.14 C457.846231,358.418291 456.514928,359.213214 455.07,359.2 L455.11,359.2 Z M28.43,351.53 C26.9643116,351.517509 25.6335747,350.671734 25,349.35 L24.76,348.85 C24.1633665,347.59957 24.2791506,346.125826 25.0637376,344.983911 C25.8483246,343.841997 27.182517,343.205396 28.5637376,343.313911 C29.9449581,343.422426 31.1633665,344.25957 31.76,345.51 L31.99,346 C32.9150367,347.91659 32.1143311,350.220297 30.2,351.15 C29.6478512,351.413388 29.0416031,351.543543 28.43,351.53 L28.43,351.53 Z M462.28,344.34 C461.742944,344.337472 461.212074,344.225172 460.72,344.01 C459.776712,343.603863 459.03479,342.837679 458.659205,341.881815 C458.28362,340.925952 458.305507,339.859646 458.72,338.92 L458.94,338.42 C459.921511,336.707172 462.039511,336.014272 463.843588,336.815798 C465.647666,337.617324 466.553166,339.653522 465.94,341.53 L465.72,342.05 C465.112915,343.414553 463.773128,344.306446 462.28,344.34 L462.28,344.34 Z M21.78,336.47 C20.1913521,336.464146 18.7694305,335.4831 18.2,334 L17.99,333.48 C17.2864454,331.52107 18.2627646,329.357092 20.197004,328.588252 C22.1312434,327.819412 24.3267393,328.722627 25.16,330.63 L25.36,331.14 C25.8287017,332.328231 25.6808963,333.671205 24.9649943,334.72906 C24.2490923,335.786916 23.0573134,336.423383 21.78,336.43 L21.78,336.47 Z M468.44,329 C467.993558,328.996977 467.550771,328.919236 467.13,328.77 C465.129521,328.042048 464.096044,325.831929 464.82,323.83 L465,323.31 C465.446907,321.98492 466.575542,321.005181 467.950279,320.748939 C469.325016,320.492696 470.730832,321.000029 471.625116,322.075119 C472.5194,323.15021 472.762276,324.624902 472.26,325.93 L472.07,326.45 C471.515586,327.977977 470.065447,328.99667 468.44,329 Z M16.18,321 C14.5073925,320.999138 13.0256483,319.921139 12.51,318.33 L12.34,317.8 C11.8107818,315.813532 12.9313024,313.760837 14.8883841,313.131584 C16.8454658,312.502332 18.9523319,313.517339 19.68,315.44 L19.85,315.96 C20.4993112,317.989227 19.3862997,320.161611 17.36,320.82 C16.9778833,320.93868 16.5801222,320.999356 16.18,321 Z M473.52,313.37 C472.311456,313.368609 471.173322,312.801265 470.444743,311.837027 C469.716165,310.872789 469.48125,309.622972 469.81,308.46 L469.95,307.94 C470.300703,306.586658 471.355767,305.528727 472.708152,305.174354 C474.060537,304.81998 475.498832,305.224561 476.468147,306.23201 C477.437462,307.23946 477.786269,308.692289 477.38,310.03 L477.22,310.57 C476.735306,312.20738 475.227594,313.327976 473.52,313.32 L473.52,313.37 Z M11.67,305.09 C9.8958205,305.085973 8.35285795,303.873056 7.93,302.15 L7.8,301.61 C7.41249809,299.590134 8.67678951,297.621182 10.6747205,297.133036 C12.6726515,296.64489 14.7024343,297.809015 15.29,299.78 L15.42,300.31 C15.673471,301.306173 15.5180562,302.362342 14.9883701,303.243274 C14.458684,304.124206 13.5987158,304.756741 12.6,305 C12.2950315,305.069072 11.9825541,305.099312 11.67,305.09 L11.67,305.09 Z M477.49,297.32 C477.220821,297.319754 476.952505,297.289569 476.69,297.23 C475.684071,297.025614 474.801411,296.427987 474.238101,295.569879 C473.674792,294.711771 473.477481,293.664242 473.69,292.66 L473.8,292.13 C474.306553,290.122455 476.306788,288.872116 478.333354,289.296219 C480.35992,289.720321 481.690944,291.667798 481.35,293.71 L481.24,294.26 C480.860735,296.032259 479.302315,297.303929 477.49,297.32 L477.49,297.32 Z M8.28,289 C6.40718985,288.999317 4.80507316,287.654382 4.48,285.81 L4.39,285.26 C4.1177113,283.206421 5.51498214,281.304059 7.55597796,280.94957 C9.59697377,280.595081 11.5538824,281.914876 11.99,283.94 L12.08,284.48 C12.2746853,285.601844 11.9641418,286.752412 11.231434,287.623949 C10.4987261,288.495486 9.41861151,288.999069 8.28,289 Z M480.34,281.12 L479.8,281.12 C477.690886,280.820727 476.222935,278.869426 476.52,276.76 L476.59,276.23 C476.718507,274.81435 477.614671,273.583887 478.922617,273.027238 C480.230562,272.47059 481.738605,272.677847 482.847888,273.566706 C483.957171,274.455565 484.488162,275.882169 484.23,277.28 L484.15,277.83 C483.853823,279.702375 482.235636,281.078471 480.34,281.07 L480.34,281.12 Z M6,272.62 C4.02656883,272.615286 2.37449559,271.122813 2.17,269.16 L2.11,268.6 C1.92008618,266.493728 3.46038687,264.626808 5.56437948,264.413121 C7.66837209,264.199434 9.55256757,265.718555 9.79,267.82 L9.79,268.36 C9.89620332,269.377389 9.59316253,270.395219 8.94776522,271.188833 C8.3023679,271.982446 7.36767745,272.486594 6.35,272.59 C6.23411159,272.607615 6.11719569,272.617636 6,272.62 Z M482.05,264.67 L481.78,264.67 C480.759833,264.600787 479.809102,264.128593 479.137502,263.357566 C478.465901,262.586538 478.128602,261.580017 478.2,260.56 L478.2,260.02 C478.292889,258.646314 479.111575,257.426531 480.347667,256.820132 C481.583758,256.213733 483.049464,256.312845 484.192667,257.080132 C485.335869,257.847419 485.982889,259.166314 485.89,260.54 L485.89,261.1 C485.743542,263.108559 484.073885,264.664871 482.06,264.67 L482.05,264.67 Z M4.87,256.17 C2.78989225,256.171563 1.08062377,254.528545 1,252.45 L1,251.89 C0.898658087,250.478433 1.57789466,249.124586 2.77004127,248.361973 C3.96218788,247.59936 5.47607512,247.550271 6.71512165,248.234052 C7.95416818,248.917832 8.71968386,250.224833 8.71,251.64 L8.71,252.17 C8.74781128,253.193918 8.37697389,254.190857 7.67919782,254.941154 C6.98142174,255.691451 6.01396639,256.133536 4.99,256.17 L4.87,256.17 Z M482.65,248.17 L482.65,248.17 C481.627182,248.170003 480.6464,247.763007 479.924097,247.038828 C479.201794,246.314649 478.797343,245.332815 478.8,244.31 L478.8,243.23 C478.794683,242.207186 479.196586,241.224296 479.917015,240.498239 C480.637443,239.772182 481.617176,239.362643 482.64,239.36 L482.64,239.36 C484.76792,239.359993 486.494487,241.082087 486.5,243.21 L486.5,244.32 C486.505322,245.344544 486.102049,246.328953 485.379457,247.055299 C484.656864,247.781646 483.674558,248.190014 482.65,248.19 L482.65,248.17 Z M4.86,239.67 L4.73,239.67 C3.70427131,239.636132 2.73425736,239.195178 2.03433689,238.444593 C1.33441643,237.694008 0.962218135,236.695592 1,235.67 L1,235.11 C0.997230192,233.696916 1.76683071,232.395265 3.00630996,231.716661 C4.24578921,231.038056 5.75700726,231.090978 6.94597962,231.854626 C8.13495198,232.618273 8.81161263,233.970572 8.71,235.38 L8.71,235.92 C8.65577029,238.007144 6.94784824,239.670704 4.86,239.67 Z M482.09,231.16 C480.065087,231.159363 478.386747,229.59029 478.25,227.57 L478.25,227.03 C478.153538,225.656314 478.797257,224.335514 479.938673,223.565132 C481.080089,222.794751 482.545795,222.691827 483.783673,223.295132 C485.021551,223.898437 485.843538,225.116314 485.94,226.49 L485.94,227.04 C486.011398,228.060017 485.674099,229.066538 485.002498,229.837566 C484.330898,230.608593 483.380167,231.080787 482.36,231.15 L482.09,231.16 Z M6,223.22 L5.61,223.22 C4.58735288,223.123771 3.64491161,222.624939 2.99029337,221.833395 C2.33567513,221.041851 2.02258649,220.022535 2.12,219 L2.18,218.45 C2.2557854,217.027442 3.10893773,215.762269 4.39937789,215.158796 C5.68981804,214.555324 7.2077408,214.711668 8.34807976,215.565507 C9.48841872,216.419347 10.0657727,217.831861 9.85,219.24 L9.85,219.78 C9.6308389,221.740246 7.97245819,223.22202 6,223.22 L6,223.22 Z M480.45,214.76 C478.524282,214.758283 476.894411,213.337479 476.63,211.43 L476.56,210.89 C476.370649,209.527032 476.922817,208.16658 478.008506,207.321113 C479.094196,206.475646 480.548466,206.273611 481.823507,206.791113 C483.098547,207.308614 484.000649,208.467032 484.19,209.83 L484.27,210.38 C484.4095,211.391843 484.1412,212.41765 483.524159,213.23162 C482.907117,214.04559 481.991912,214.581002 480.98,214.72 C480.791555,214.750146 480.600809,214.763532 480.41,214.76 L480.45,214.76 Z M8.19,206.88 C7.97357511,206.894475 7.75642489,206.894475 7.54,206.88 C5.44284733,206.518589 4.03381162,204.528046 4.39,202.43 L4.48,201.87 C4.67555411,200.473127 5.61745434,199.294141 6.93666618,198.794966 C8.25587802,198.295791 9.7423226,198.555919 10.8136141,199.473432 C11.8849056,200.390945 12.3704454,201.819733 12.08,203.2 L11.99,203.73 C11.6478376,205.55848 10.0502165,206.882824 8.19,206.88 L8.19,206.88 Z M477.59,198.51 C475.770172,198.503281 474.200884,197.229536 473.82,195.45 L473.71,194.91 C473.373036,193.540746 473.809538,192.096708 474.848566,191.143386 C475.887595,190.190065 477.363784,189.879185 478.699042,190.332491 C480.034301,190.785797 481.016116,191.931143 481.26,193.32 L481.37,193.86 C481.579731,194.863987 481.381261,195.910165 480.818403,196.767584 C480.255546,197.625004 479.374586,198.223158 478.37,198.43 C478.112946,198.480147 477.851881,198.506923 477.59,198.51 L477.59,198.51 Z M11.59,190.74 C11.2794629,190.739517 10.9702714,190.699187 10.67,190.62 C8.60313331,190.134745 7.31918713,188.067905 7.8,186 L7.93,185.47 C8.19852113,184.070325 9.21644875,182.932499 10.5777136,182.51042 C11.9389785,182.088341 13.4220579,182.450696 14.4353253,183.452934 C15.4485928,184.455172 15.8271562,185.934197 15.42,187.3 L15.29,187.84 C14.8516447,189.547173 13.3125539,190.740586 11.55,190.74 L11.59,190.74 Z M473.7,182.5 C471.976788,182.496923 470.465489,181.349153 470,179.69 L469.85,179.17 C469.471298,177.846331 469.827533,176.421175 470.784513,175.431376 C471.741493,174.441576 473.153831,174.037506 474.489513,174.371376 C475.825195,174.705245 476.881299,175.726331 477.26,177.05 L477.42,177.59 C477.744846,178.754327 477.506994,180.003566 476.777017,180.967058 C476.04704,181.930549 474.908792,182.497614 473.7,182.5 L473.7,182.5 Z M16,174.86 C15.6032311,174.85836 15.2089141,174.797696 14.83,174.68 C12.8010209,174.030277 11.682095,171.85956 12.33,169.83 L12.5,169.3 C13.2276681,167.377339 15.3345342,166.362332 17.2916159,166.991584 C19.2486976,167.620837 20.3692182,169.673532 19.84,171.66 L19.68,172.18 C19.1667381,173.778604 17.6789784,174.862081 16,174.86 L16,174.86 Z M468.62,166.79 C466.994553,166.78667 465.544414,165.767977 464.99,164.24 L464.81,163.73 C464.341982,162.434912 464.600437,160.988517 465.488007,159.935658 C466.375577,158.882799 467.757419,158.383429 469.113007,158.625658 C470.468595,158.867886 471.591982,159.814912 472.06,161.11 L472.25,161.63 C472.966415,163.631827 471.929122,165.836073 469.93,166.56 C469.513568,166.712533 469.073488,166.790394 468.63,166.79 L468.62,166.79 Z M21.62,159.31 C21.1341979,159.306978 20.6530098,159.215485 20.2,159.04 C19.2349422,158.669684 18.4587316,157.927773 18.0452068,156.980426 C17.6316819,156.033078 17.6153973,154.959454 18,154 L18.21,153.48 C18.6710745,152.130826 19.8383283,151.145689 21.245792,150.917858 C22.6532556,150.690027 24.0716917,151.256609 24.9348583,152.391423 C25.7980249,153.526238 25.9653357,155.044455 25.37,156.34 L25.17,156.85 C24.5937081,158.330735 23.1689239,159.307049 21.58,159.31 L21.62,159.31 Z M462.62,151.5 C461.085786,151.501938 459.69607,150.595089 459.08,149.19 L458.87,148.7 C458.107619,146.774839 459.000047,144.591067 460.892536,143.750856 C462.785025,142.910645 465.003355,143.713328 465.92,145.57 L466.14,146.09 C466.548562,147.028852 466.567369,148.091564 466.192282,149.044284 C465.817196,149.997004 465.07895,150.761665 464.14,151.17 C463.632588,151.392238 463.083926,151.504697 462.53,151.5 L462.62,151.5 Z M28.22,144.19 C26.8933562,144.189985 25.6596753,143.508695 24.9530912,142.385876 C24.246507,141.263057 24.1660375,139.856056 24.74,138.66 L24.99,138.15 C25.9644573,136.315202 28.2163154,135.580779 30.0851436,136.488265 C31.9539719,137.395751 32.7693276,139.619585 31.93,141.52 L31.7,142 C31.0539531,143.335161 29.7032421,144.185177 28.22,144.19 L28.22,144.19 Z M455.37,136.66 C453.953813,136.64358 452.660347,135.852915 452,134.6 L451.75,134.12 C450.829723,132.247283 451.564295,129.982232 453.40849,129.006052 C455.252684,128.029873 457.538802,128.695996 458.57,130.51 L458.82,131.01 C459.29857,131.912584 459.397751,132.968664 459.095595,133.944569 C458.79344,134.920474 458.11486,135.735747 457.21,136.21 C456.642968,136.508932 456.010994,136.663491 455.37,136.66 Z M35.88,129.57 C35.212692,129.571151 34.5570355,129.395159 33.98,129.06 C33.0909419,128.556564 32.4391661,127.719579 32.1689099,126.73427 C31.8986537,125.748961 32.0322017,124.696574 32.54,123.81 L32.81,123.32 C33.8952027,121.530183 36.2091568,120.931396 38.0263182,121.970161 C39.8434796,123.008927 40.5016396,125.306699 39.51,127.15 L39.24,127.62 C38.5540897,128.828844 37.2698773,129.574146 35.88,129.57 L35.88,129.57 Z M447.21,122.34 C445.873092,122.340863 444.631443,121.648114 443.93,120.51 L443.64,120.05 C442.827926,118.87641 442.729665,117.35051 443.38451,116.082458 C444.039354,114.814406 445.340432,114.011149 446.767485,113.993884 C448.194537,113.976618 449.514668,114.748162 450.2,116 L450.49,116.47 C451.227613,117.658649 451.262428,119.153866 450.58094,120.375558 C449.899451,121.597251 448.60891,122.353152 447.21,122.35 L447.21,122.34 Z M44.54,115.52 C43.1189351,115.515412 41.8153198,114.730378 41.1465799,113.476491 C40.47784,112.222603 40.5521442,110.702679 41.34,109.52 L41.64,109.06 C42.3829251,107.862627 43.7192955,107.165237 45.126406,107.240608 C46.5335166,107.315978 47.7877444,108.15213 48.3985134,109.422013 C49.0092825,110.691896 48.8795273,112.193695 48.06,113.34 L47.76,113.8 C47.0402631,114.873997 45.832861,115.518945 44.54,115.52 L44.54,115.52 Z M438.08,108.62 C436.835329,108.619503 435.666862,108.020385 434.94,107.01 L434.62,106.57 C433.440294,104.838581 433.857148,102.482213 435.559259,101.260602 C437.261371,100.03899 439.627211,100.39821 440.89,102.07 L441.21,102.52 C442.447518,104.251962 442.049354,106.65884 440.32,107.9 C439.668309,108.370937 438.884035,108.623025 438.08,108.62 L438.08,108.62 Z M54.15,102.1 C52.6806473,102.099161 51.3392006,101.264171 50.6897379,99.9461437 C50.0402751,98.6281163 50.1954455,97.055663 51.09,95.89 L51.43,95.45 C52.7576603,93.8539907 55.1098904,93.5939542 56.7541053,94.861426 C58.3983203,96.1288978 58.7455345,98.4698479 57.54,100.16 L57.21,100.59 C56.4799299,101.54133 55.3491792,102.099315 54.15,102.1 Z M428,95.56 C426.838187,95.5680461 425.7352,95.0496421 425,94.15 L424.66,93.74 C423.709498,92.6872707 423.412901,91.1980627 423.88754,89.861496 C424.362179,88.5249294 425.531589,87.5563271 426.93316,87.3388612 C428.334731,87.1213954 429.742668,87.6901002 430.6,88.82 L430.96,89.25 C431.909497,90.4059536 432.105608,92.0064356 431.463293,93.3574373 C430.820978,94.7084389 429.455904,95.5666777 427.96,95.56 L428,95.56 Z M64.65,89.37 C63.1507301,89.3535723 61.7966149,88.4704232 61.1771445,87.1050161 C60.557674,85.739609 60.7849376,84.1390055 61.76,83 L62.13,82.58 C63.0463862,81.5492887 64.4430399,81.0857584 65.7938552,81.3640166 C67.1446705,81.6422747 68.2444263,82.6200472 68.6788553,83.9290166 C69.1132843,85.2379861 68.8163863,86.6792888 67.9,87.71 L67.54,88.11 C66.7999173,88.9221985 65.7487624,89.3804875 64.65,89.37 L64.65,89.37 Z M417.09,83.21 C416.03138,83.2119648 415.01866,82.7779418 414.29,82.01 L413.92,81.62 C412.450923,80.0791255 412.509126,77.6390775 414.05,76.1700001 C415.590874,74.7009226 418.030923,74.7591256 419.5,76.3 L419.88,76.7 C420.935953,77.8183327 421.227198,79.4568409 420.621316,80.8705641 C420.015435,82.2842873 418.628071,83.203392 417.09,83.21 L417.09,83.21 Z M76,77.4 C74.4328309,77.4063475 73.0182125,76.4621189 72.4229447,75.0123894 C71.827677,73.5626598 72.1705714,71.8967858 73.29,70.8 L73.69,70.4 C74.6643535,69.3781704 76.118865,68.9698536 77.4826627,69.3353071 C78.8464604,69.7007605 79.9019089,70.7816651 80.2347621,72.1537836 C80.5676153,73.5259021 80.1247563,74.9702712 79.08,75.92 L78.7,76.29 C77.9812196,77.0010133 77.0110317,77.3998684 76,77.4 Z M405.33,71.64 C404.365449,71.6453861 403.434014,71.2885145 402.72,70.64 L402.32,70.27 C401.244438,69.3545403 400.754757,67.924738 401.043264,66.542109 C401.331772,65.15948 402.352394,64.0448268 403.704311,63.6358989 C405.056227,63.2269711 406.523539,63.5890734 407.53,64.58 L407.94,64.96 C409.112998,66.0336133 409.505265,67.7179117 408.927319,69.1993127 C408.349373,70.6807138 406.920142,71.6543831 405.33,71.65 L405.33,71.64 Z M88.14,66.24 C86.5254194,66.2387847 85.0821825,65.2327975 84.5223597,63.7183766 C83.962537,62.2039557 84.4044238,60.5011113 85.63,59.45 L86.05,59.09 C87.6804088,57.8330066 90.0103658,58.076763 91.3453095,59.6439868 C92.6802531,61.2112107 92.5503158,63.5502774 91.05,64.96 L90.63,65.31 C89.9371752,65.9065334 89.0542454,66.2363024 88.14,66.24 L88.14,66.24 Z M392.81,60.9 C391.934122,60.9045757 391.083274,60.6080148 390.4,60.06 L389.98,59.72 C388.803416,58.898083 388.181693,57.4899327 388.367011,56.0667127 C388.552329,54.6434927 389.513919,53.441506 390.861747,52.9482937 C392.209574,52.4550815 393.719855,52.7525337 394.78,53.72 L395.22,54.07 C396.500526,55.09122 396.99476,56.8108157 396.451881,58.3561055 C395.909002,59.9013952 394.447871,60.9340478 392.81,60.93 L392.81,60.9 Z M101.01,55.9 C99.3691924,55.883289 97.9192935,54.8284471 97.3983685,53.2724375 C96.8774436,51.7164279 97.399987,50.0012466 98.7,49 L99.15,48.66 C100.862083,47.3897451 103.279745,47.7479173 104.55,49.46 C105.820255,51.1720827 105.462083,53.5897451 103.75,54.86 L103.32,55.18 C102.646055,55.6702629 101.833397,55.9329754 101,55.93 L101.01,55.9 Z M379.57,51.02 C378.786214,51.0219838 378.021091,50.7809176 377.38,50.33 L376.93,50.03 C375.173735,48.8204964 374.730497,46.4162656 375.94,44.6600001 C377.149504,42.9037347 379.553734,42.4604965 381.31,43.67 L381.77,43.99 C383.128227,44.9608504 383.708352,46.6948678 383.207782,48.2875887 C382.707213,49.8803096 381.239418,50.9706951 379.57,50.99 L379.57,51.02 Z M114.57,46.51 C112.860993,46.506422 111.35778,45.3794732 110.87518,43.7400175 C110.392579,42.1005619 111.04549,40.3389232 112.48,39.41 L112.94,39.11 C114.734925,37.9584863 117.123486,38.4800746 118.275,40.275 C119.426514,42.0699254 118.904925,44.4584863 117.11,45.61 L116.65,45.9 C116.029304,46.309729 115.303691,46.5319262 114.56,46.54 L114.57,46.51 Z M365.7,42.1 C364.995503,42.103603 364.303591,41.9133274 363.7,41.55 L363.23,41.28 C361.473467,40.1611229 360.921226,37.8505498 361.981988,36.0583224 C363.042749,34.2660951 365.334,33.6384926 367.16,34.64 L367.64,34.93 C369.146597,35.814266 369.868996,37.6020777 369.399626,39.2847701 C368.930255,40.9674624 367.386775,42.1232298 365.64,42.1 L365.7,42.1 Z M128.7,38.1 C126.939663,38.0980916 125.403606,36.9054423 124.965589,35.2004703 C124.527571,33.4954984 125.298563,31.7101541 126.84,30.86 L127.32,30.6 C129.186722,29.5782732 131.528273,30.2632775 132.55,32.13 C133.571727,33.9967225 132.886722,36.3382732 131.02,37.36 L130.55,37.62 C129.989545,37.9312596 129.361002,38.0995581 128.72,38.11 L128.7,38.1 Z M351.2,34.17 C350.595908,34.171372 349.999927,34.0309396 349.46,33.76 L348.98,33.51 C347.74922,32.8919306 346.941668,31.6641975 346.861542,30.289276 C346.781416,28.9143545 347.440888,27.6011279 348.591542,26.8442759 C349.742196,26.0874239 351.20922,26.0019304 352.44,26.62 L352.94,26.87 C354.528967,27.6787849 355.357241,29.4706243 354.943842,31.204998 C354.530443,32.9393716 352.982954,34.1649333 351.2,34.17 L351.2,34.17 Z M143.4,30.66 C141.585075,30.6723957 140.007981,29.4155655 139.615025,27.6436476 C139.222069,25.8717296 140.119987,24.0660191 141.77,23.31 L142.28,23.08 C144.212997,22.1908216 146.500822,23.0370034 147.39,24.97 C148.279178,26.9029966 147.432997,29.1908216 145.5,30.08 L145.01,30.31 C144.511976,30.5427142 143.969694,30.6654952 143.42,30.67 L143.4,30.66 Z M336.21,27.25 C335.698439,27.2489455 335.192109,27.1469999 334.72,26.95 L334.21,26.74 C332.243866,25.9115729 331.321573,23.6461337 332.15,21.68 C332.978427,19.7138663 335.243866,18.7915729 337.21,19.62 L337.72,19.84 C339.424073,20.5415877 340.392011,22.3523558 340.028723,24.1590415 C339.665435,25.9657271 338.072812,27.2616186 336.23,27.25 L336.21,27.25 Z M158.57,24.25 C156.71375,24.2439206 155.124693,22.9174485 154.787038,21.0921565 C154.449384,19.2668645 155.458763,17.4597164 157.19,16.79 L157.72,16.59 C159.007942,16.1023325 160.458218,16.3388182 161.524522,17.2103753 C162.590825,18.0819324 163.11116,19.4561507 162.889522,20.8153753 C162.667883,22.1746 161.737942,23.3123325 160.45,23.8 L160,24 C159.553131,24.1856238 159.073888,24.2807925 158.59,24.28 L158.57,24.25 Z M320.77,21.36 C320.34753,21.3635093 319.927757,21.2924186 319.53,21.15 L319,21 C317.048479,20.2700023 316.028508,18.1229702 316.695491,16.1490238 C317.362475,14.1750774 319.475662,13.0867185 321.47,13.69 L322,13.87 C323.78074,14.4826343 324.859486,16.2908343 324.552702,18.148855 C324.245919,20.0068757 322.643162,21.3723242 320.76,21.38 L320.77,21.36 Z M174.17,18.91 C172.253918,18.9208725 170.621471,17.5210557 170.339938,15.6257386 C170.058406,13.7304216 171.213487,11.9165421 173.05,11.37 L173.59,11.21 C174.90831,10.8134352 176.338044,11.1503042 177.340634,12.0937118 C178.343224,13.0371193 178.766354,14.4437394 178.450634,15.7837118 C178.134914,17.1236842 177.12831,18.1934352 175.81,18.59 L175.29,18.75 C174.934209,18.865218 174.563826,18.9291932 174.19,18.94 L174.17,18.91 Z M305,16.62 C304.662311,16.6222568 304.325888,16.5785218 304,16.49 L303.47,16.35 C301.409978,15.7977153 300.187715,13.6800221 300.74,11.62 C301.292285,9.55997788 303.409978,8.33771525 305.47,8.89 L306,9 C307.874156,9.4990904 309.086962,11.3113578 308.833622,13.2342124 C308.580281,15.1570669 306.939469,16.5933635 305,16.59 L305,16.62 Z M190.13,14.71 C188.170598,14.7034851 186.526931,13.2299674 186.307185,11.2829161 C186.087439,9.33586476 187.361339,7.53306793 189.27,7.09 L189.81,6.97 C191.179883,6.59204978 192.646644,6.99735628 193.628109,8.02504843 C194.609574,9.05274057 194.946992,10.5365908 194.506438,11.887641 C194.065884,13.2386913 192.918616,14.2384112 191.52,14.49 L190.99,14.61 C190.707439,14.6722491 190.419305,14.7057531 190.13,14.71 L190.13,14.71 Z M288.93,13 C288.68517,12.9965218 288.44103,12.9731111 288.2,12.93 L287.66,12.82 C286.30775,12.5627688 285.19545,11.6036604 284.742094,10.3039617 C284.288737,9.00426301 284.5632,7.56142913 285.462094,6.51896165 C286.360988,5.47649417 287.74775,4.99276872 289.1,5.25 L289.65,5.35 C291.60119,5.72668969 292.947539,7.52323802 292.76133,9.50171337 C292.57512,11.4801887 290.91721,12.9939832 288.93,13 L288.93,13 Z M206.32,11.62 C204.291766,11.6455945 202.591574,10.0931532 202.433177,8.0709522 C202.27478,6.04875122 203.712518,4.25051901 205.72,3.96 L206.28,3.87 C208.327368,3.65449616 210.183558,5.08366017 210.498601,7.11809059 C210.813644,9.152521 209.476656,11.0761667 207.46,11.49 L206.92,11.58 C206.720282,11.5950212 206.519718,11.5950212 206.32,11.58 L206.32,11.62 Z M272.63,10.45 C272.476822,10.459752 272.323178,10.459752 272.17,10.45 L271.63,10.38 C270.218577,10.2691565 268.981096,9.39452956 268.405555,8.10102598 C267.830013,6.80752239 268.008779,5.30273879 268.871359,4.18008249 C269.733938,3.0574262 271.141893,2.49707428 272.54,2.72 L273.09,2.79 C275.145693,2.99641092 276.671996,4.78859067 276.54847,6.85092401 C276.424945,8.91325734 274.695634,10.5104393 272.63,10.47 L272.63,10.45 Z M222.69,9.63 C220.645162,9.59920618 218.979228,7.97890864 218.891662,5.93571447 C218.804097,3.8925203 220.325295,2.13563139 222.36,1.93 L222.91,1.88 C225.00562,1.74475335 226.824888,3.30962407 227.00446,5.40191239 C227.184032,7.49420072 225.658019,9.34618269 223.57,9.57 L223.03,9.57 L222.69,9.63 Z M256.2,9 L256,9 L255.46,9 C253.333704,8.8950659 251.695066,7.08629629 251.8,4.96 C251.904934,2.83370371 253.713704,1.1950659 255.84,1.3 L256.4,1.3 C258.422471,1.48889223 259.952492,3.2129121 259.899749,5.24349998 C259.847007,7.27408786 258.22955,8.91635506 256.2,9 L256.2,9 Z M239.2,8.72 C237.068181,8.75037563 235.315376,7.04681911 235.285,4.915 C235.254624,2.78318089 236.958181,1.03037569 239.09,1 L239.65,1 C241.070786,0.908900186 242.426367,1.60727808 243.176962,2.81704544 C243.927558,4.02681281 243.951289,5.55153199 243.238706,6.78407256 C242.526123,8.01661314 241.192932,8.75683961 239.77,8.71 L239.16,8.71 L239.2,8.72 Z" id="Shape" fill="#0056BF" fill-rule="nonzero"></path>
                        <path d="M60.33,233 C60.2966444,235.632582 59.5426884,238.205717 58.15,240.44 C56.8306692,242.471208 54.9321123,244.059726 52.7,245 C50.1177003,246.04696 47.3289192,246.484953 44.55,246.28 C41.7650622,246.237043 39.027513,245.552656 36.55,244.28 C34.4233911,243.147376 32.682624,241.406609 31.55,239.28 C30.3697389,236.926303 29.8545456,234.295013 30.06,231.67 C30.1126733,229.756347 30.5266066,227.869897 31.28,226.11 C31.9730831,224.520155 32.9955967,223.095453 34.28,221.93 L37,223.3 C35.8773701,224.425224 34.9452032,225.72553 34.24,227.15 C33.6172036,228.591768 33.2776964,230.139921 33.24,231.71 C33.08,235.09 34,237.703333 36,239.55 C38,241.396667 40.9,242.396667 44.7,242.55 C46.9232101,242.713592 49.156286,242.417437 51.26,241.68 C52.9921246,241.056132 54.4830088,239.901222 55.52,238.38 C56.5775136,236.697698 57.1518031,234.756877 57.18,232.77 C57.2868744,231.201449 57.0794872,229.627346 56.57,228.14 C55.9978174,226.645686 55.1761482,225.25933 54.14,224.04 L57,222.92 C58.1519557,224.207834 59.0327953,225.714444 59.59,227.35 C60.1954106,229.16875 60.446609,231.086684 60.33,233 Z" id="Path" fill="#0056BF" fill-rule="nonzero"></path>
                        <polygon id="Path" fill="#0056BF" fill-rule="nonzero" points="61.56 215.87 32.62 210.07 36.32 191.6 39.11 192.16 36.11 207.31 46.17 209.31 49 195.08 51.83 195.65 49 209.89 59.39 212 62.39 196.86 65.22 197.42"></polygon>
                        <path d="M67.16,190.48 L39.46,180.31 L43.61,169 C44.6833333,166.086667 46.2,164.086667 48.16,163 C50.2150822,161.899919 52.6596003,161.796837 54.8,162.72 C56.2735893,163.208877 57.5753818,164.111453 58.55,165.32 C59.4282133,166.479167 59.9494758,167.8692 60.05,169.32 C60.1510067,170.980035 59.8882161,172.6421 59.28,174.19 L59.03,173.29 L59.32,172.51 C59.6790189,171.486152 60.3203859,170.584771 61.17,169.91 C62.1508315,169.20489 63.3321372,168.833322 64.54,168.85 L75.3,168.34 L74,171.9 L63.46,172.31 C62.3398972,172.248407 61.247294,172.670881 60.46,173.47 C59.6831473,174.398094 59.0862685,175.46298 58.7,176.61 L56.42,182.82 L68.42,187.22 L67.16,190.48 Z M53.82,181.88 L56.6,174.3 C57.3539083,172.635716 57.4955785,170.758585 57,169 C56.4178765,167.543388 55.1966571,166.436543 53.69,166 C52.2460223,165.352334 50.5806747,165.426514 49.2,166.2 C47.7085539,167.228972 46.6172858,168.740501 46.11,170.48 L43.33,178 L53.82,181.88 Z" id="Shape" fill="#0056BF" fill-rule="nonzero"></path>
                        <polygon id="Path" fill="#0056BF" fill-rule="nonzero" points="81.49 156.76 58.2 143.94 53.2 153.07 50.63 151.66 62.34 130.39 64.91 131.8 59.91 140.9 83.2 153.72"></polygon>
                        <polygon id="Path" fill="#0056BF" fill-rule="nonzero" points="91.8 139.84 67.61 122.92 69.61 120.07 93.79 137"></polygon>
                        <polygon id="Path" fill="#0056BF" fill-rule="nonzero" points="99.14 129.59 76.81 110.29 88.81 96.36 91 98.22 81.23 109.52 89.05 116.29 98.22 105.68 100.37 107.54 91.2 118.15 101.4 126.97"></polygon>
                        <polygon id="Path" fill="#0056BF" fill-rule="nonzero" points="116.24 111 96 89.54 98.53 87.15 118.77 108.63"></polygon>
                        <path d="M135.88,95.08 C133.810374,96.7057366 131.340036,97.7422421 128.73,98.08 C126.335877,98.3320528 123.921289,97.8581943 121.8,96.72 C116.948047,93.9112283 113.462757,89.2328409 112.16,83.78 C111.693578,81.429731 111.933674,78.9939696 112.85,76.78 C113.937831,74.36115 115.666969,72.2861836 117.85,70.78 C119.36411,69.6110205 121.08375,68.735937 122.92,68.2 C124.574289,67.7492981 126.304162,67.6471402 128,67.9 L128.61,70.9 C127.030296,70.7448251 125.435839,70.8495458 123.89,71.21 C122.373162,71.6259968 120.9529,72.3361279 119.71,73.3 C117.003333,75.3 115.566667,77.6733333 115.4,80.42 C115.233333,83.1666667 116.286667,86.0533333 118.56,89.08 C119.842625,90.9022738 121.48677,92.4408943 123.39,93.6 C124.970721,94.550761 126.812728,94.9744926 128.65,94.81 C130.608804,94.555471 132.459748,93.7666576 134,92.53 C135.282591,91.6181149 136.373294,90.4628536 137.21,89.13 C138.002093,87.7392757 138.553202,86.2245705 138.84,84.65 L141.55,86.13 C141.278896,87.8363523 140.670373,89.4715462 139.76,90.94 C138.741824,92.5542721 137.424935,93.9594057 135.88,95.08 Z" id="Path" fill="#0056BF" fill-rule="nonzero"></path>
                        <path d="M146.5,86.8 L144.55,54.6 L147.23,53.22 L172.51,73.39 L169.31,75 L162.18,69.21 L163.96,69.28 L147.96,77.55 L149,76 L149.65,85.13 L146.5,86.8 Z M147.68,57.46 L148.94,74.71 L147.7,74.5 L161.54,67.37 L161.22,68.37 L147.75,57.37 L147.68,57.46 Z" id="Shape" fill="#0056BF" fill-rule="nonzero"></path>
                        <path d="M177.88,71.45 L169.17,43.25 L178.53,40.36 C181.23487,39.4366291 184.116901,39.1525334 186.95,39.53 C189.370156,39.9101358 191.607404,41.0480159 193.34,42.78 C195.273694,44.8108477 196.669295,47.2926796 197.4,50 C198.30089,52.6349881 198.53789,55.451517 198.09,58.2 C197.64101,60.6125266 196.440411,62.8212096 194.66,64.51 C192.544188,66.4399226 190.001505,67.8414821 187.24,68.6 L177.88,71.45 Z M180.32,67.59 L186.12,65.8 C189.96,64.6133333 192.523333,62.79 193.81,60.33 C195.096667,57.87 195.16,54.76 194,51 C192.833333,47.2133333 191.026667,44.6733333 188.58,43.38 C186.133333,42.0866667 182.993333,42.0366667 179.16,43.23 L173.36,45 L180.32,67.59 Z" id="Shape" fill="#0056BF" fill-rule="nonzero"></path>
                        <path d="M206.28,48 C205.878216,45.2564894 206.096917,42.4577945 206.92,39.81 C207.655361,37.5454728 209.047744,35.5508831 210.92,34.08 C212.960987,32.5540242 215.382934,31.6198444 217.92,31.38 C220.421871,31.0247178 222.973256,31.370903 225.29,32.38 C227.479773,33.3622343 229.330563,34.9694999 230.61,37 C232.062455,39.3556887 232.95217,42.0145655 233.21,44.77 C233.612894,47.5273425 233.373332,50.340487 232.51,52.99 C231.755459,55.2588518 230.367505,57.2644456 228.51,58.77 C224.334036,61.7654385 218.915258,62.4144843 214.15,60.49 C211.987848,59.4785039 210.167053,57.8592474 208.91,55.83 C207.450949,53.4531902 206.5516,50.7756597 206.28,48 L206.28,48 Z M209.9,47.57 C210.104795,49.7856066 210.750807,51.9378465 211.8,53.9 C212.662783,55.4991152 213.996365,56.7942955 215.62,57.61 C217.359557,58.4120418 219.296027,58.6866938 221.19,58.4 C223.991991,58.2136116 226.540212,56.7113851 228.06,54.35 C229.54,52.0233333 230.053333,48.9733333 229.6,45.2 C229.395072,42.9759659 228.734713,40.8178853 227.66,38.86 C226.773078,37.27524 225.427473,35.9958696 223.8,35.19 C222.085385,34.3996296 220.176905,34.1284795 218.31,34.41 C215.07,34.8033333 212.736667,36.1366667 211.31,38.41 C209.883333,40.6833333 209.413333,43.7433333 209.9,47.59 L209.9,47.57 Z" id="Shape" fill="#0056BF" fill-rule="nonzero"></path>
                        <path d="M268.29,61 L274.08,32.06 L283.68,33.98 C286.500782,34.4541043 289.171775,35.5807156 291.48,37.27 C293.427504,38.75578 294.852701,40.8217906 295.55,43.17 C296.280085,45.8658405 296.328196,48.7009402 295.69,51.42 C295.229402,54.1642087 294.095574,56.7513981 292.39,58.95 C290.854386,60.8577612 288.753925,62.2300624 286.39,62.87 C283.606449,63.540276 280.703551,63.540276 277.92,62.87 L268.29,61 Z M272.29,58.77 L278.29,59.96 C282.23,60.7533333 285.35,60.3766667 287.65,58.83 C289.95,57.2833333 291.486667,54.58 292.26,50.72 C293.04,46.8266667 292.663333,43.7333333 291.13,41.44 C289.596667,39.1466667 286.86,37.6033333 282.92,36.81 L276.97,35.62 L272.29,58.77 Z" id="Shape" fill="#0056BF" fill-rule="nonzero"></path>
                        <polygon id="Path" fill="#0056BF" fill-rule="nonzero" points="300.06 68.34 310.4 40.69 328 47.29 327 49.95 312.53 44.54 309 54.15 322.61 59.24 321.61 61.94 308 56.86 304.28 66.86 318.75 72.27 317.75 74.97"></polygon>
                        <polygon id="Path" fill="#0056BF" fill-rule="nonzero" points="346.59 91 364.22 67.33 379.33 78.58 377.63 80.86 365.24 71.64 359.11 79.86 370.77 88.54 369 90.81 357.35 82.13 351 90.66 363.39 99.89 361.66 102.2"></polygon>
                        <path d="M373.39,113.76 C371.836839,112.264026 370.533626,110.52866 369.53,108.62 C368.666594,106.962452 368.120555,105.158148 367.92,103.3 L370.76,102.22 C370.926165,103.369048 371.197299,104.500447 371.57,105.6 C371.938357,106.660577 372.442553,107.668968 373.07,108.6 C373.793514,109.680977 374.6244,110.686081 375.55,111.6 C377.31,113.353333 378.94,114.323333 380.44,114.51 C381.875214,114.730953 383.327023,114.229555 384.32,113.17 C385.167158,112.410686 385.620297,111.305471 385.55,110.17 C385.246549,108.610158 384.585955,107.141792 383.62,105.88 L381.12,102.16 C379.772644,100.35183 378.952331,98.2058645 378.75,95.96 C378.732095,94.0569866 379.529153,92.23722 380.94,90.96 C382.068408,89.7702064 383.540281,88.9625993 385.15,88.65 C386.791787,88.3675252 388.479977,88.5547168 390.02,89.19 C391.843199,89.9315221 393.491649,91.0452476 394.86,92.46 C396.257916,93.8209329 397.408403,95.4146961 398.26,97.17 C399.024068,98.7565763 399.436793,100.489341 399.47,102.25 L396.72,103.25 C396.650454,101.625051 396.266715,100.02897 395.59,98.55 C394.854279,97.0584605 393.86642,95.7052294 392.67,94.55 C391.38658,93.1170016 389.66895,92.1440292 387.78,91.78 C386.205188,91.5235564 384.606445,92.0714822 383.52,93.24 C382.627162,94.0451601 382.127378,95.1979475 382.15,96.4 C382.35553,97.9086022 382.948083,99.33831 383.87,100.55 L386.39,104.3 C387.767896,106.150651 388.661621,108.316215 388.99,110.6 C389.074168,112.465633 388.318308,114.270891 386.93,115.52 C385.855546,116.635245 384.455077,117.380995 382.93,117.65 C381.335265,117.908823 379.699899,117.714797 378.21,117.09 C376.394981,116.316816 374.755357,115.184046 373.39,113.76 L373.39,113.76 Z" id="Path" fill="#0056BF" fill-rule="nonzero"></path>
                        <polygon id="Path" fill="#0056BF" fill-rule="nonzero" points="389.78 131.84 411.03 115.84 404.76 107.51 407.1 105.75 421.7 125.15 419.35 126.91 413.11 118.62 391.87 134.62"></polygon>
                        <path d="M406.21,158.17 C405.073268,156.187573 404.425369,153.962777 404.32,151.68 C404.287284,149.74626 404.907329,147.857941 406.08,146.32 C407.504551,144.542493 409.304066,143.101515 411.35,142.1 L427.12,133.77 L428.73,136.77 L413.11,145.02 C410.42,146.44 408.7,148.11 407.97,150.02 C407.24,151.93 407.55,154.15 408.91,156.72 C409.847392,158.841041 411.64991,160.457845 413.86,161.16 C415.86,161.7 418.216667,161.26 420.93,159.84 L436.55,151.59 L438.15,154.59 L422.38,163 C420.394582,164.134043 418.172845,164.791321 415.89,164.92 C413.945166,164.989673 412.031001,164.420692 410.44,163.3 C408.64013,161.952787 407.189572,160.193599 406.21,158.17 L406.21,158.17 Z" id="Path" fill="#0056BF" fill-rule="nonzero"></path>
                        <path d="M415.31,176.15 L443.42,167.15 L446.42,176.48 C447.37429,179.174151 447.689245,182.053251 447.34,184.89 C446.985454,187.313251 445.876254,189.563143 444.17,191.32 C442.165133,193.261937 439.712956,194.680353 437.03,195.45 C434.407205,196.386412 431.592404,196.654489 428.84,196.23 C426.415849,195.810767 424.188205,194.630396 422.48,192.86 C420.532396,190.769002 419.106933,188.24703 418.32,185.5 L415.31,176.15 Z M419.21,178.55 L421.06,184.33 C422.293333,188.156667 424.143333,190.7 426.61,191.96 C429.076667,193.22 432.183333,193.246667 435.93,192.04 C439.71,190.83 442.22,189.04 443.49,186.54 C444.76,184.04 444.77,180.94 443.54,177.12 L441.69,171.34 L419.21,178.55 Z" id="Shape" fill="#0056BF" fill-rule="nonzero"></path>
                        <polygon id="Path" fill="#0056BF" fill-rule="nonzero" points="424.2 207.75 453.2 202.28 453.84 205.7 424.84 211.17"></polygon>
                        <path d="M441.3,218 C444.066286,217.757265 446.851739,218.140052 449.45,219.12 C451.666087,219.982191 453.574259,221.486444 454.93,223.44 C457.654448,227.806866 457.985571,233.255343 455.81,237.92 C454.696565,240.030273 452.989703,241.768422 450.9,242.92 C445.910508,245.455416 440.095329,245.817281 434.83,243.92 C432.601651,243.020977 430.681072,241.496321 429.3,239.53 C427.88441,237.443638 427.087118,234.999764 427,232.48 C426.769655,229.9354 427.261838,227.377435 428.42,225.1 C429.554098,222.974483 431.294483,221.234098 433.42,220.1 C435.855148,218.815878 438.548763,218.098036 441.3,218 L441.3,218 Z M441.53,221.63 C439.306998,221.712862 437.122084,222.232756 435.1,223.16 C433.448941,223.92333 432.073192,225.176867 431.16,226.75 C430.258009,228.441808 429.872077,230.361035 430.05,232.27 C430.079825,235.077266 431.428069,237.707082 433.69,239.37 C435.93,240.976667 438.93,241.666667 442.69,241.44 C444.923994,241.366082 447.119144,240.835162 449.14,239.88 C450.774292,239.087037 452.130384,237.818098 453.03,236.24 C453.91664,234.575581 454.295616,232.687653 454.12,230.81 C453.92,227.55 452.72,225.14 450.52,223.6 C448.32,222.06 445.34,221.39 441.53,221.62 L441.53,221.63 Z" id="Shape" fill="#0056BF" fill-rule="nonzero"></path>
                        <polygon id="Path" fill="#0056BF" fill-rule="nonzero" points="55.91 348.05 81.1 332.68 90.92 348.76 88.49 350.24 80.49 337.05 71.74 342.4 79.3 354.8 76.84 356.3 69.27 343.9 60.19 349.44 68.19 362.63 65.73 364.13"></polygon>
                        <path d="M72.5,373.72 L95,354.58 L101.35,362.04 C103.267922,364.160546 104.667931,366.696992 105.44,369.45 C106.047064,371.821969 105.886005,374.325375 104.98,376.6 C103.883225,379.170326 102.165108,381.427933 99.98,383.17 C97.9009003,385.019687 95.4020185,386.334346 92.7,387 C90.3003581,387.54401 87.7900071,387.312932 85.53,386.34 C82.9286773,385.150671 80.6412126,383.370009 78.85,381.14 L72.5,373.72 Z M77.02,374.44 L81,379.06 C83.58,382.12 86.2466667,383.766667 89,384 C91.7533333,384.233333 94.6333333,383.063333 97.64,380.49 C100.66,377.923333 102.28,375.256667 102.5,372.49 C102.72,369.723333 101.526667,366.816667 98.92,363.77 L95,359.13 L77.02,374.44 Z" id="Shape" fill="#0056BF" fill-rule="nonzero"></path>
                        <path d="M106.39,409.18 C104.584073,407.780015 103.137503,405.970089 102.17,403.9 C101.40143,402.127007 101.256891,400.145767 101.76,398.28 C102.397388,396.090648 103.51058,394.069145 105.02,392.36 L116.42,378.64 L119.06,380.84 L107.77,394.42 C105.823333,396.76 104.873333,398.95 104.92,400.99 C104.92,402.99 106.11,404.99 108.34,406.83 C110.57,408.67 112.54,409.32 114.61,409.05 C116.68,408.78 118.7,407.47 120.61,405.13 L131.91,391.55 L134.55,393.74 L123.15,407.45 C121.742199,409.255777 119.934872,410.710538 117.87,411.7 C116.100948,412.506656 114.116043,412.710416 112.22,412.28 C110.058418,411.723388 108.06014,410.660839 106.39,409.18 L106.39,409.18 Z" id="Path" fill="#0056BF" fill-rule="nonzero"></path>
                        <polygon id="Path" fill="#0056BF" fill-rule="nonzero" points="132.67 427.45 146.25 404.6 137.25 399.27 138.74 396.75 159.62 409.16 158.12 411.68 149.2 406.37 135.61 429.22"></polygon>
                        <polygon id="Path" fill="#0056BF" fill-rule="nonzero" points="153.06 438.35 165.33 411.5 168.49 412.94 156.23 439.79"></polygon>
                        <polygon id="Path" fill="#0056BF" fill-rule="nonzero" points="167.84 444.93 176.7 416.77 179.29 417.59 189.81 447.23 188.89 446.94 196.43 422.94 199.5 423.94 190.65 452.1 188.09 451.3 177.57 421.66 178.45 421.93 170.92 445.93"></polygon>
                        <path d="M231.49,458.58 L244,428.86 L247,428.81 L260.71,458.11 L257.11,458.17 L253.29,449.81 L254.85,450.67 L236.85,450.96 L238.51,450.05 L235.05,458.53 L231.49,458.58 Z M245.56,432.81 L239.03,448.81 L238.03,448.07 L253.6,447.82 L252.86,448.59 L245.65,432.79 L245.56,432.81 Z" id="Shape" fill="#0056BF" fill-rule="nonzero"></path>
                        <path d="M283.3,455.1 C280.722101,455.643744 278.044264,455.467298 275.56,454.59 C273.30774,453.739122 271.363508,452.230425 269.98,450.26 C266.911735,445.569484 265.903141,439.825198 267.19,434.37 C267.816781,432.034868 269.134325,429.943529 270.97,428.37 C273.008157,426.702472 275.46325,425.623614 278.07,425.25 C279.950048,424.894925 281.879952,424.894925 283.76,425.25 C285.459041,425.579013 287.070314,426.260312 288.49,427.25 L287.69,430.19 C286.348168,429.340257 284.874917,428.718518 283.33,428.35 C281.785538,428.038618 280.194462,428.038618 278.65,428.35 C275.33,428.93 272.98,430.41 271.65,432.77 C270.32,435.13 269.92,438.19 270.58,441.93 C270.909192,444.133662 271.685051,446.246857 272.86,448.14 C273.835806,449.705234 275.286397,450.917564 277,451.6 C278.868504,452.270901 280.885988,452.412782 282.83,452.01 C284.388206,451.767652 285.883367,451.220559 287.23,450.4 C288.557027,449.513846 289.726494,448.411978 290.69,447.14 L292.46,449.68 C291.445602,451.080407 290.164377,452.266475 288.69,453.17 C287.033907,454.153418 285.203914,454.808684 283.3,455.1 Z" id="Path" fill="#0056BF" fill-rule="nonzero"></path>
                        <path d="M301.06,451.13 L303.55,419 L306.4,418 L328.66,441.46 L325.27,442.66 L319,435.9 L320.75,436.22 L303.75,442.22 L305.04,440.83 L304.43,449.97 L301.06,451.13 Z M306.25,422.23 L305.13,439.49 L303.93,439.11 L318.63,433.95 L318.16,434.95 L306.33,422.2 L306.25,422.23 Z" id="Shape" fill="#0056BF" fill-rule="nonzero"></path>
                        <path d="M338.34,436.78 L323.86,411.06 L332.4,406.26 C334.848682,404.781591 337.608471,403.89476 340.46,403.67 C342.904525,403.526712 345.331334,404.164056 347.39,405.49 C351.929169,408.788662 354.809002,413.898633 355.28,419.49 C355.357522,421.943344 354.657505,424.358404 353.28,426.39 C351.618322,428.721367 349.428701,430.626578 346.89,431.95 L338.34,436.78 Z M339.91,432.49 L345.2,429.49 C348.7,427.49 350.82,425.156667 351.56,422.49 C352.3,419.823333 351.703333,416.77 349.77,413.33 C347.83,409.883333 345.526667,407.783333 342.86,407.03 C340.193333,406.276667 337.113333,406.89 333.62,408.87 L328.33,411.87 L339.91,432.49 Z" id="Shape" fill="#0056BF" fill-rule="nonzero"></path>
                        <polygon id="Path" fill="#0056BF" fill-rule="nonzero" points="370.08 417.41 351.75 394.28 366.52 382.58 368.29 384.81 356.18 394.41 362.55 402.41 373.94 393.41 375.73 395.68 364.34 404.68 371 413 383.11 403.41 384.9 405.67"></polygon>
                        <polygon id="Path" fill="#0056BF" fill-rule="nonzero" points="393.81 397.75 371.86 378 373.86 375.76 401.67 384.83 400.86 385.73 388.86 359.04 390.86 356.8 412.81 376.53 410.69 378.89 392.06 362.16 392.9 361.22 404.05 386.27 402.57 388 376.45 379.61 377.29 378.67 395.91 395.41"></polygon>
                        <polygon id="Path" fill="#0056BF" fill-rule="nonzero" points="424.56 359.29 412.9 352 415.29 352.61 393.47 353.33 395.61 349.93 413.22 349.53 412.75 350.27 405.46 334.27 407.46 331 416.29 350.94 414.75 349 426.41 356.33"></polygon>
                        <g id="isotype-edutin/-azul" transform="translate(180.000000, 134.000000)">
                            <g id="Edutin" transform="translate(0.000000, -3.188830)" fill="#0056BF">
                                <path d="M56.4705882,124.190426 L71.5294118,124.190426 C84.0045496,124.190426 94.1176471,114.378317 94.1176471,102.274468 L94.1176471,7.30531915 C94.1176471,3.27070279 97.4886795,1.27724944e-13 101.647059,1.1264996e-13 L120.470588,8.8351312e-15 C124.628968,8.0939842e-15 128,3.27070279 128,7.30531915 L128,118.138501 C128,122.013483 126.41345,125.729756 123.589373,128.469783 L100.733588,150.645326 C96.497472,154.755366 90.7520663,157.064362 84.7612936,157.064362 L43.2387064,157.064362 C37.2479339,157.064362 31.5025278,154.755366 27.266412,150.645326 L4.41062731,128.469783 C1.58655006,125.729756 2.49660203e-13,122.013483 2.56265597e-13,118.138501 L2.22044605e-14,7.30531915 C1.43084405e-14,3.27070279 3.37103247,4.57739629e-15 7.52941176,-3.33066907e-15 L26.3529412,1.14272067e-13 C30.5113205,1.24281298e-13 33.8823529,3.27070279 33.8823529,7.30531915 L33.8823529,102.274468 C33.8823529,114.378317 43.9954504,124.190426 56.4705882,124.190426 Z M7.52941176,186.285638 L120.470588,186.285638 C124.628968,186.285638 128,189.556341 128,193.590957 L128,211.854255 C128,215.888872 124.628968,219.159574 120.470588,219.159574 L7.52941176,219.159574 C3.37103247,219.159574 2.98191426e-14,215.888872 2.93098879e-14,211.854255 L2.93098879e-14,193.590957 C2.88006335e-14,189.556341 3.37103247,186.285638 7.52941176,186.285638 Z" id="path-1"></path>
                            </g>
                            <g id="Color/Primary-Clipped" transform="translate(0.000000, -3.188830)">
                                <mask id="mask-2" fill="white">
                                    <use xlink:href="#path-1"></use>
                                </mask>
                                <g id="path-1"></g>
                                <g id="Color/Primary" mask="url(#mask-2)" fill="#0056BF">
                                    <rect id="Rectangle" x="0" y="0" width="128" height="219.159574"></rect>
                                </g>
                            </g>
                        </g>
                    </g>
                </g>
            </g>
        </g>
    </g>
</svg>